PathFileType	4	(X/Y/Z)	C:/Users/cpontonn/Documents/TRAVAIL - COURS/FORMATION DOCTORALE/COURS AUTOMNE/TP OPENSIM/ESCRIME DATA/C3Ds/Trial011.trc	
DataRate	CameraRate	NumFrames	NumMarkers	Units	OrigDataRate	OrigDataStartFrame	OrigNumFrames	
250.00	250.00	4	54	mm	250.00	1	790	
Frame#	Time	Sword:Root4			Screen:LBot			Screen:RBot			Screen:LTop			Screen:RTop			Screen:MTop			Sword:Root1			Sword:Root2			Sword:Root3			Sword:Root5			Sword:Root6			Sword:STip			LFHD			LBHD			RFHD			RBHD			C7			T10			CLAV			STRN			LSHO			LRAD			LHUM			LWRB			LWRA			RSHO			RBAC			RUPA			RRAD			RHUM			RWRB			RWRA			RCAR			LFWT			LBWT			RFWT			RBWT			LKNE			LKNI			LANE			LANI			LHEE			LTAR			LTARI			LTOE			RTHI			RKNE			RKNI			RANE			RANI			RHEE			RTAR			RTARI			RTOE			
		X1	Y1	Z1	X2	Y2	Z2	X3	Y3	Z3	X4	Y4	Z4	X5	Y5	Z5	X6	Y6	Z6	X7	Y7	Z7	X8	Y8	Z8	X9	Y9	Z9	X10	Y10	Z10	X11	Y11	Z11	X12	Y12	Z12	X13	Y13	Z13	X14	Y14	Z14	X15	Y15	Z15	X16	Y16	Z16	X17	Y17	Z17	X18	Y18	Z18	X19	Y19	Z19	X20	Y20	Z20	X21	Y21	Z21	X22	Y22	Z22	X23	Y23	Z23	X24	Y24	Z24	X25	Y25	Z25	X26	Y26	Z26	X27	Y27	Z27	X28	Y28	Z28	X29	Y29	Z29	X30	Y30	Z30	X31	Y31	Z31	X32	Y32	Z32	X33	Y33	Z33	X34	Y34	Z34	X35	Y35	Z35	X36	Y36	Z36	X37	Y37	Z37	X38	Y38	Z38	X39	Y39	Z39	X40	Y40	Z40	X41	Y41	Z41	X42	Y42	Z42	X43	Y43	Z43	X44	Y44	Z44	X45	Y45	Z45	X46	Y46	Z46	X47	Y47	Z47	X48	Y48	Z48	X49	Y49	Z49	X50	Y50	Z50	X51	Y51	Z51	X52	Y52	Z52	X53	Y53	Z53	X54	Y54	Z54	

1	0.000	36.10245	1548.19409	1064.94592	-1671.06567	3506.20776	29.27987	2280.27954	3508.21338	32.72977	-1652.50928	3517.69312	2206.12256	2272.65454	3511.63135	2215.32373	-472.41119	3518.62598	2201.57178	83.72965	1592.56775	1090.19299	67.87087	1900.93420	1239.61316	160.08672	1529.70691	1048.57227	14.02388	1518.81091	1014.59424	93.25756	1572.49097	1008.13971	51.85201	2379.22827	1385.07874	203.77081	1141.01489	1511.67822	181.96849	1048.12769	1473.94836	419.68915	1127.22229	1519.09827	420.08176	1017.67438	1463.86682	239.69101	972.80225	1337.26611	149.19354	915.74530	1079.82568	337.18298	1077.78247	1222.94653	358.58221	1077.83313	1065.94092	128.23288	1150.29346	1251.45935	11.18240	1178.73206	939.32892	91.59345	1160.56335	898.35675	93.15524	1451.25439	927.96869	79.52311	1420.33350	1026.13452	411.90549	867.76343	1274.16248	256.05716	830.61444	1228.43213	444.40533	796.60468	1054.42175	415.57599	716.23395	976.01727	337.04889	753.05371	942.77307	586.50201	914.19946	905.24792	553.53503	948.00623	987.44189	635.24420	953.38037	979.66107	257.15836	1113.28271	848.49774	122.25153	927.96967	856.88025	384.18878	915.68707	856.61176	161.66226	865.91339	863.83850	194.86081	1373.78687	507.10519	331.71817	1349.53040	469.41550	159.85478	1326.73413	103.56178	253.34790	1301.66638	109.14394	176.58237	1244.25134	60.70837	182.50569	1462.94702	40.35765	284.40598	1425.94446	53.11766	277.82132	1506.59302	57.06399	543.19965	809.15485	508.71030	486.90781	724.41003	437.41763	497.54590	854.44177	377.18155	204.61278	680.65063	119.49020	254.63121	756.97308	75.58420	152.86925	738.81415	70.81494	305.13739	581.49377	50.82256	355.29044	684.55902	44.53302	403.96423	626.51251	49.89674 
2	0.004	36.19713	1548.17297	1064.99500	-1671.11768	3506.24097	29.23337	2280.55298	3508.40527	32.62774	-1652.61169	3517.59937	2206.16870	2272.24341	3510.98120	2215.62402	-472.49503	3518.39307	2201.39917	83.79453	1592.55798	1090.20740	67.90960	1900.86047	1239.72656	160.26508	1529.83875	1048.53992	14.08259	1518.79907	1014.64178	93.07658	1572.52588	1008.27625	51.62276	2379.08252	1385.27991	203.77563	1141.05969	1511.67053	181.99425	1048.19128	1473.95569	419.66946	1127.31006	1519.08325	420.14023	1017.75793	1463.87549	239.73038	972.88361	1337.26367	149.25403	915.79236	1079.82263	337.17859	1077.84192	1222.98584	358.69217	1077.89148	1065.98230	128.23357	1150.31689	1251.44214	11.28693	1178.73303	939.28143	91.66138	1160.59436	898.31293	93.18175	1451.27844	927.93042	79.64229	1420.33459	1026.11523	411.90549	867.78998	1274.22229	256.05151	830.67389	1228.43567	444.44058	796.47229	1054.37341	415.62628	716.23267	976.02686	337.10312	753.15112	942.79883	586.55505	914.26483	905.34741	553.61682	947.83618	987.42657	635.32886	953.48810	979.73120	257.16702	1113.30579	848.51447	122.30403	927.99213	856.89331	384.24283	915.75433	856.59601	161.69157	865.96191	863.86517	194.87569	1373.82422	507.10953	331.69797	1349.55164	469.41455	159.85468	1326.72876	103.56862	253.31665	1301.65540	109.14314	176.66476	1244.20386	60.64149	182.49236	1462.96301	40.34574	284.39310	1425.98914	53.12265	277.68408	1506.58972	57.17155	543.20325	809.21759	508.68704	486.85660	724.54559	437.40753	497.50980	854.55176	377.19894	204.72273	680.63275	119.40841	254.64009	756.99420	75.57841	152.87251	738.85706	70.81351	305.22086	581.45898	50.77696	355.30139	684.58820	44.53707	404.04678	626.46484	49.80150 
3	0.008	36.27123	1548.15784	1065.00122	-1671.10217	3506.21924	29.22285	2280.59985	3508.42212	32.62199	-1652.60938	3517.60278	2206.20996	2272.58374	3511.55322	2215.39404	-472.48743	3518.55469	2201.54712	83.82448	1592.53711	1090.25305	67.83182	1900.83081	1239.82690	160.25702	1529.82471	1048.54370	14.11502	1518.76367	1014.68079	93.10662	1572.55493	1008.32080	51.44748	2379.04248	1385.45020	203.79564	1141.10376	1511.70642	182.02083	1048.23315	1474.00940	419.70374	1127.40552	1519.08569	420.14395	1017.85590	1463.90466	239.73744	972.92279	1337.29211	149.27429	915.82794	1079.83899	337.20273	1077.88818	1223.03967	358.75113	1077.98669	1066.05725	128.26013	1150.36694	1251.43787	11.36787	1178.78259	939.22620	91.73240	1160.60278	898.28687	93.22639	1451.30237	928.04083	79.73518	1420.34595	1026.12903	411.94427	867.84064	1274.25525	256.08994	830.71887	1228.47925	444.49820	796.67242	1054.43921	415.67316	716.36938	976.07544	337.15997	753.21393	942.82062	586.62555	914.39276	905.43390	553.64093	948.08862	987.57922	635.35278	953.52777	979.85278	257.20001	1113.33704	848.54572	122.36238	928.04858	856.90625	384.27515	915.82623	856.57092	161.74471	866.01477	863.88727	194.87700	1373.88623	507.12872	331.71881	1349.58337	469.40079	159.86621	1326.71777	103.59293	253.32115	1301.67700	109.14972	176.67010	1244.24121	60.64038	182.49033	1462.97717	40.35769	284.38593	1425.95764	53.11668	277.83899	1506.54419	57.04350	543.22687	809.30243	508.65338	486.88638	724.63837	437.36792	497.49527	854.64380	377.17197	204.62352	680.68658	119.51175	254.77591	756.95209	75.42476	152.86411	738.84314	70.82381	305.13004	581.47223	50.86816	355.32413	684.45471	44.43012	403.99426	626.54810	49.89705 
4	0.012	36.41336	1548.10742	1065.09802	-1670.92175	3506.22119	29.38472	2280.53369	3508.43018	32.64986	-1652.52466	3517.67139	2206.18311	2272.72070	3511.64526	2215.36523	-472.34479	3518.61304	2201.39380	83.87821	1592.53235	1090.28186	67.84952	1900.77051	1239.92200	160.34758	1529.84680	1048.48987	14.20404	1518.73633	1014.74377	93.40258	1572.54260	1008.20673	51.27322	2378.93799	1385.65833	203.75328	1141.14697	1511.70825	182.01666	1048.22925	1474.07080	419.71289	1127.48865	1519.05078	420.16422	1017.93164	1463.91626	239.74934	972.96619	1337.29797	149.33992	915.85999	1079.82373	337.22491	1077.94617	1223.09521	358.77002	1078.01624	1066.09717	128.26088	1150.40466	1251.42041	11.45860	1178.79297	939.20197	91.78462	1160.57703	898.22858	93.25413	1451.33313	927.96600	79.80978	1420.35278	1026.13733	411.96649	867.87061	1274.34045	256.13559	830.75165	1228.48730	444.53677	796.74561	1054.47095	415.70270	716.42078	976.12378	337.22519	753.29584	942.86627	586.68304	914.44550	905.54755	553.66882	948.17902	987.65125	635.38220	953.59656	979.96002	257.21783	1113.44275	848.62073	122.42047	928.07739	856.93341	384.32352	915.87531	856.56873	161.79680	866.02374	863.89313	194.91856	1373.92920	507.12497	331.72449	1349.59656	469.40540	159.88145	1326.75391	103.58732	253.34419	1301.70483	109.13546	176.58710	1244.24841	60.76513	182.47214	1462.97058	40.34406	284.37689	1425.98743	53.09445	277.68985	1506.60156	57.12121	543.26141	809.32135	508.55838	486.86560	724.68408	437.31995	497.53845	854.68597	377.11801	204.59921	680.67670	119.52560	254.75722	756.93732	75.43929	152.88316	738.85400	70.81169	305.20526	581.49371	50.81155	355.28641	684.62329	44.51582	403.97958	626.55121	49.91107 
